<svg width="16" height="16" viewBox="0 0 16 16" fill="none" xmlns="http://www.w3.org/2000/svg">
<path fill-rule="evenodd" clip-rule="evenodd" d="M12.4419 4.44194C12.686 4.19786 12.686 3.80214 12.4419 3.55806C12.1979 3.31398 11.8021 3.31398 11.5581 3.55806L8 7.11612L4.44194 3.55806C4.19786 3.31398 3.80214 3.31398 3.55806 3.55806C3.31398 3.80214 3.31398 4.19786 3.55806 4.44194L7.11612 8L3.55806 11.5581C3.31398 11.8021 3.31398 12.1979 3.55806 12.4419C3.80214 12.686 4.19786 12.686 4.44194 12.4419L8 8.88388L11.5581 12.4419C11.8021 12.686 12.1979 12.686 12.4419 12.4419C12.686 12.1979 12.686 11.8021 12.4419 11.5581L8.88388 8L12.4419 4.44194Z" fill="#FEFEFE"/>
</svg>
