<svg width="24" height="24" viewBox="0 0 24 24" fill="none" xmlns="http://www.w3.org/2000/svg">
<path d="M19.2725 4.146C20.7912 4.146 22.0225 5.37721 22.0225 6.896V16.896C22.0225 18.4148 20.7912 19.646 19.2725 19.646H5.27246C3.75371 19.646 2.52246 18.4148 2.52246 16.896V6.896C2.52246 5.37724 3.75371 4.14604 5.27246 4.146H19.2725ZM12.6885 13.52C12.4366 13.6879 12.1084 13.688 11.8564 13.52L4.02246 8.29736V16.896C4.02246 17.5863 4.58214 18.146 5.27246 18.146H19.2725C19.9628 18.146 20.5225 17.5864 20.5225 16.896V8.29736L12.6885 13.52ZM5.27246 5.646C4.70925 5.64603 4.23341 6.01867 4.07715 6.53076L12.2725 11.9946L20.4678 6.52979C20.3112 6.01815 19.8354 5.646 19.2725 5.646H5.27246Z" fill="#141718"/>
</svg>
